<svg width="18" height="18" viewBox="0 0 18 18" fill="none" xmlns="http://www.w3.org/2000/svg">
<path d="M8.92138 0C10.1044 0 11.239 0.469964 12.0756 1.30651C12.9121 2.14305 13.3821 3.27764 13.3821 4.46069C13.3821 5.64374 12.9121 6.77833 12.0756 7.61487C11.239 8.45142 10.1044 8.92138 8.92138 8.92138C7.73833 8.92138 6.60374 8.45142 5.7672 7.61487C4.93065 6.77833 4.46069 5.64374 4.46069 4.46069C4.46069 3.27764 4.93065 2.14305 5.7672 1.30651C6.60374 0.469964 7.73833 0 8.92138 0ZM8.92138 2.23035C8.32986 2.23035 7.76256 2.46533 7.34429 2.8836C6.92602 3.30187 6.69104 3.86917 6.69104 4.46069C6.69104 5.05221 6.92602 5.61951 7.34429 6.03778C7.76256 6.45605 8.32986 6.69104 8.92138 6.69104C9.5129 6.69104 10.0802 6.45605 10.4985 6.03778C10.9167 5.61951 11.1517 5.05221 11.1517 4.46069C11.1517 3.86917 10.9167 3.30187 10.4985 2.8836C10.0802 2.46533 9.5129 2.23035 8.92138 2.23035ZM8.92138 10.0366C11.8989 10.0366 17.8428 11.5197 17.8428 14.4972V17.8428H0V14.4972C0 11.5197 5.94387 10.0366 8.92138 10.0366ZM8.92138 12.1554C5.60932 12.1554 2.11883 13.7835 2.11883 14.4972V15.7239H15.7239V14.4972C15.7239 13.7835 12.2334 12.1554 8.92138 12.1554Z" fill="black"/>
</svg>
