<svg width="13" height="13" viewBox="0 0 13 13" fill="none" xmlns="http://www.w3.org/2000/svg">
<path d="M6.5 7.8C10.088 7.8 13 9.16067 13 10.8333V13H0V10.8333C0 9.16067 2.912 7.8 6.5 7.8ZM12.1333 10.8333C12.1333 9.63733 9.61133 8.66667 6.5 8.66667C3.38867 8.66667 0.866667 9.63733 0.866667 10.8333V12.1333H12.1333V10.8333ZM6.5 0C7.30449 0 8.07603 0.319583 8.64489 0.888443C9.21375 1.4573 9.53333 2.22884 9.53333 3.03333C9.53333 3.83782 9.21375 4.60936 8.64489 5.17822C8.07603 5.74708 7.30449 6.06667 6.5 6.06667C5.69551 6.06667 4.92397 5.74708 4.35511 5.17822C3.78625 4.60936 3.46667 3.83782 3.46667 3.03333C3.46667 2.22884 3.78625 1.4573 4.35511 0.888443C4.92397 0.319583 5.69551 0 6.5 0ZM6.5 0.866667C5.92536 0.866667 5.37426 1.09494 4.96794 1.50127C4.56161 1.9076 4.33333 2.4587 4.33333 3.03333C4.33333 3.60797 4.56161 4.15907 4.96794 4.5654C5.37426 4.97173 5.92536 5.2 6.5 5.2C7.07464 5.2 7.62574 4.97173 8.03206 4.5654C8.43839 4.15907 8.66667 3.60797 8.66667 3.03333C8.66667 2.4587 8.43839 1.9076 8.03206 1.50127C7.62574 1.09494 7.07464 0.866667 6.5 0.866667Z" fill="black"/>
</svg>
