<svg width="11" height="13" viewBox="0 0 11 13" fill="none" xmlns="http://www.w3.org/2000/svg">
<path d="M1.16711 13C0.834409 13 0.556834 12.8888 0.334389 12.6664C0.111945 12.4439 0.000481482 12.1663 0 11.8336V4.05529C0 3.72306 0.111463 3.44573 0.334389 3.22328C0.557316 3.00084 0.834891 2.88938 1.16711 2.88889H2.52778V2.52778C2.52778 1.82578 2.77358 1.22898 3.26517 0.73739C3.75677 0.245797 4.35356 0 5.05557 0C5.75757 0 6.35436 0.245797 6.84596 0.73739C7.33755 1.22898 7.58335 1.82578 7.58335 2.52778V2.88889H8.94474C9.27696 2.88889 9.5543 3.00036 9.77674 3.22328C9.99919 3.44621 10.1107 3.72379 10.1111 4.05601V11.8336C10.1111 12.1659 9.99967 12.4434 9.77674 12.6664C9.55382 12.8893 9.27648 13.0005 8.94474 13H1.16711ZM1.16711 12.2778H8.94474C9.05548 12.2778 9.15732 12.2316 9.25024 12.1391C9.34317 12.0467 9.38939 11.9446 9.38891 11.8329V4.05601C9.38891 3.94479 9.34269 3.84271 9.25024 3.74979C9.1578 3.65686 9.05572 3.61064 8.94402 3.61112H7.58335V5.41668C7.58335 5.51971 7.54892 5.60566 7.48007 5.67451C7.41122 5.74336 7.32527 5.77779 7.22224 5.77779C7.1192 5.77779 7.03325 5.74336 6.9644 5.67451C6.89555 5.60566 6.86113 5.51971 6.86113 5.41668V3.61112H3.25001V5.41668C3.25001 5.51971 3.21558 5.60566 3.14673 5.67451C3.07788 5.74336 2.99193 5.77779 2.88889 5.77779C2.78586 5.77779 2.69991 5.74336 2.63106 5.67451C2.56221 5.60566 2.52778 5.51971 2.52778 5.41668V3.61112H1.16711C1.05589 3.61112 0.953817 3.65734 0.860891 3.74979C0.767964 3.84223 0.721742 3.9443 0.722224 4.05601V11.8336C0.722224 11.9444 0.768446 12.0462 0.860891 12.1391C0.953335 12.2321 1.05517 12.2783 1.16639 12.2778M3.25001 2.88889H6.86113V2.52778C6.86113 2.01934 6.68731 1.5913 6.33968 1.24367C5.99205 0.896039 5.56401 0.722224 5.05557 0.722224C4.54712 0.722224 4.11908 0.896039 3.77145 1.24367C3.42382 1.5913 3.25001 2.01934 3.25001 2.52778V2.88889Z" fill="black"/>
</svg>
