<svg width="18" height="18" viewBox="0 0 18 18" fill="none" xmlns="http://www.w3.org/2000/svg">
<path d="M1.62303 3.10603H14.9735C16.1827 3.10603 17.0559 4.22048 16.7242 5.34194L15.2728 10.256C15.049 11.0107 14.3347 11.5302 13.5221 11.5302H5.48585C4.6724 11.5302 3.95722 11.0098 3.73433 10.256L1.62303 3.10603ZM1.62303 3.10603L1 1M12.8464 16.7952C13.1955 16.7952 13.5303 16.6566 13.7772 16.4097C14.024 16.1629 14.1627 15.8281 14.1627 15.479C14.1627 15.1299 14.024 14.7951 13.7772 14.5482C13.5303 14.3014 13.1955 14.1627 12.8464 14.1627C12.4973 14.1627 12.1625 14.3014 11.9157 14.5482C11.6688 14.7951 11.5302 15.1299 11.5302 15.479C11.5302 15.8281 11.6688 16.1629 11.9157 16.4097C12.1625 16.6566 12.4973 16.7952 12.8464 16.7952ZM5.82633 16.7952C6.17542 16.7952 6.51022 16.6566 6.75707 16.4097C7.00392 16.1629 7.1426 15.8281 7.1426 15.479C7.1426 15.1299 7.00392 14.7951 6.75707 14.5482C6.51022 14.3014 6.17542 14.1627 5.82633 14.1627C5.47723 14.1627 5.14243 14.3014 4.89558 14.5482C4.64873 14.7951 4.51005 15.1299 4.51005 15.479C4.51005 15.8281 4.64873 16.1629 4.89558 16.4097C5.14243 16.6566 5.47723 16.7952 5.82633 16.7952Z" stroke="black" stroke-width="1.31627" stroke-linecap="round" stroke-linejoin="round"/>
</svg>
