<svg viewBox="0 0 24 24" xmlns="http://www.w3.org/2000/svg"><path d="m0 0h24v24h-24z" fill="#fff" opacity="0"/><g fill="#000"><rect height="2" rx="1" width="16" x="4" y="18"/><rect height="2" rx="1" transform="matrix(0 -1 1 0 -13 23)" width="4" x="3" y="17"/><rect height="2" rx="1" transform="matrix(0 -1 1 0 1 37)" width="4" x="17" y="17"/><path d="m12 15a1 1 0 0 1 -.58-.18l-4-2.82a1 1 0 0 1 -.24-1.39 1 1 0 0 1 1.4-.24l3.42 2.39 3.4-2.56a1 1 0 0 1 1.2 1.6l-4 3a1 1 0 0 1 -.6.2z"/><path d="m12 13a1 1 0 0 1 -1-1v-8a1 1 0 0 1 2 0v8a1 1 0 0 1 -1 1z"/></g></svg>
