<svg width="16" height="16" viewBox="0 0 16 16" fill="none" xmlns="http://www.w3.org/2000/svg">
<path d="M5.91038 0.528336C7.42313 0.528336 8.87393 1.12927 9.94361 2.19895C11.0133 3.26863 11.6142 4.71942 11.6142 6.23217C11.6142 7.64497 11.0965 8.94369 10.2453 9.94406L10.4822 10.181H11.1755L15.563 14.5686L14.2468 15.8848L9.85919 11.4973V10.804L9.62226 10.5671C8.58712 11.4503 7.27109 11.9356 5.91038 11.936C4.39763 11.936 2.94684 11.3351 1.87716 10.2654C0.807481 9.19572 0.206543 7.74493 0.206543 6.23217C0.206543 4.71942 0.807481 3.26863 1.87716 2.19895C2.94684 1.12927 4.39763 0.528336 5.91038 0.528336ZM5.91038 2.28336C3.7166 2.28336 1.96157 4.03839 1.96157 6.23217C1.96157 8.42596 3.7166 10.181 5.91038 10.181C8.10417 10.181 9.85919 8.42596 9.85919 6.23217C9.85919 4.03839 8.10417 2.28336 5.91038 2.28336Z" fill="#000"/>
</svg>
