<svg width="22" height="22" viewBox="0 0 22 22" fill="none" xmlns="http://www.w3.org/2000/svg">
<path d="M11.3583 12.0585C10.1947 12.0585 9.07867 11.5963 8.25584 10.7734C7.43301 9.9506 6.97075 8.8346 6.97075 7.67095H8.72578C8.72578 8.36914 9.00313 9.03874 9.49683 9.53243C9.99053 10.0261 10.6601 10.3035 11.3583 10.3035C12.0565 10.3035 12.7261 10.0261 13.2198 9.53243C13.7135 9.03874 13.9909 8.36914 13.9909 7.67095H15.7459C15.7459 8.8346 15.2836 9.9506 14.4608 10.7734C13.638 11.5963 12.522 12.0585 11.3583 12.0585ZM11.3583 3.28338C12.0565 3.28338 12.7261 3.56073 13.2198 4.05443C13.7135 4.54813 13.9909 5.21773 13.9909 5.91592H8.72578C8.72578 5.21773 9.00313 4.54813 9.49683 4.05443C9.99053 3.56073 10.6601 3.28338 11.3583 3.28338ZM17.5009 5.91592H15.7459C15.7459 5.33974 15.6324 4.76919 15.4119 4.23687C15.1914 3.70455 14.8682 3.22086 14.4608 2.81344C14.0534 2.40602 13.5697 2.08283 13.0374 1.86233C12.505 1.64184 11.9345 1.52835 11.3583 1.52835C10.1947 1.52835 9.07867 1.99061 8.25584 2.81344C7.43301 3.63627 6.97075 4.75226 6.97075 5.91592H5.21572C4.24168 5.91592 3.46069 6.69691 3.46069 7.67095V18.2011C3.46069 18.6666 3.6456 19.113 3.97473 19.4421C4.30386 19.7712 4.75026 19.9561 5.21572 19.9561H17.5009C17.9664 19.9561 18.4128 19.7712 18.7419 19.4421C19.071 19.113 19.2559 18.6666 19.2559 18.2011V7.67095C19.2559 7.20548 19.071 6.75909 18.7419 6.42996C18.4128 6.10082 17.9664 5.91592 17.5009 5.91592Z" fill="black"/>
</svg>
